o SM_RockChunk
v -0.22626 0.25627 0.00000
v -0.32734 0.14161 0.10628
v -0.14361 0.26319 0.19752
v -0.45990 0.00000 0.24160
v -0.22555 0.09758 0.31020
v -0.32734 0.14161 0.10628
v 0.00000 0.18250 0.35856
v -0.14361 0.26319 0.19752
v -0.22555 0.09758 0.31020
v -0.32734 0.14161 0.10628
v -0.22555 0.09758 0.31020
v -0.14361 0.26319 0.19752
v -0.22626 0.25627 0.00000
v -0.14361 0.26319 0.19752
v 0.00000 0.36102 0.00000
v 0.00000 0.18250 0.35856
v 0.16452 0.30151 0.22627
v -0.14361 0.26319 0.19752
v 0.20161 0.22834 0.00000
v 0.00000 0.36102 0.00000
v 0.16452 0.30151 0.22627
v -0.14361 0.26319 0.19752
v 0.16452 0.30151 0.22627
v 0.00000 0.36102 0.00000
v -0.22626 0.25627 0.00000
v 0.00000 0.36102 0.00000
v -0.15962 0.29252 -0.21952
v 0.20161 0.22834 0.00000
v 0.12302 0.22545 -0.16919
v 0.00000 0.36102 0.00000
v 0.00000 0.16425 -0.32271
v -0.15962 0.29252 -0.21952
v 0.12302 0.22545 -0.16919
v 0.00000 0.36102 0.00000
v 0.12302 0.22545 -0.16919
v -0.15962 0.29252 -0.21952
v -0.22626 0.25627 0.00000
v -0.15962 0.29252 -0.21952
v -0.39362 0.17029 -0.12780
v 0.00000 0.16425 -0.32271
v -0.24601 0.10643 -0.33834
v -0.15962 0.29252 -0.21952
v -0.44581 0.00000 -0.23419
v -0.39362 0.17029 -0.12780
v -0.24601 0.10643 -0.33834
v -0.15962 0.29252 -0.21952
v -0.24601 0.10643 -0.33834
v -0.39362 0.17029 -0.12780
v -0.22626 0.25627 0.00000
v -0.39362 0.17029 -0.12780
v -0.32734 0.14161 0.10628
v -0.44581 0.00000 -0.23419
v -0.45138 0.00000 0.00000
v -0.39362 0.17029 -0.12780
v -0.45990 0.00000 0.24160
v -0.32734 0.14161 0.10628
v -0.45138 0.00000 0.00000
v -0.39362 0.17029 -0.12780
v -0.45138 0.00000 0.00000
v -0.32734 0.14161 0.10628
v 0.20161 0.22834 0.00000
v 0.16452 0.30151 0.22627
v 0.30423 0.13162 0.09877
v 0.00000 0.18250 0.35856
v 0.25898 0.11204 0.35618
v 0.16452 0.30151 0.22627
v 0.33621 0.00000 0.17662
v 0.30423 0.13162 0.09877
v 0.25898 0.11204 0.35618
v 0.16452 0.30151 0.22627
v 0.25898 0.11204 0.35618
v 0.30423 0.13162 0.09877
v 0.00000 0.18250 0.35856
v -0.22555 0.09758 0.31020
v 0.00000 0.00000 0.40873
v -0.45990 0.00000 0.24160
v -0.23834 -0.10311 0.32779
v -0.22555 0.09758 0.31020
v 0.00000 -0.15049 0.29567
v 0.00000 0.00000 0.40873
v -0.23834 -0.10311 0.32779
v -0.22555 0.09758 0.31020
v -0.23834 -0.10311 0.32779
v 0.00000 0.00000 0.40873
v -0.45990 0.00000 0.24160
v -0.45138 0.00000 0.00000
v -0.35263 -0.15256 0.11449
v -0.44581 0.00000 -0.23419
v -0.32605 -0.14106 -0.10586
v -0.45138 0.00000 0.00000
v -0.25479 -0.28858 0.00000
v -0.35263 -0.15256 0.11449
v -0.32605 -0.14106 -0.10586
v -0.45138 0.00000 0.00000
v -0.32605 -0.14106 -0.10586
v -0.35263 -0.15256 0.11449
v -0.44581 0.00000 -0.23419
v -0.24601 0.10643 -0.33834
v -0.22972 -0.09938 -0.31594
v 0.00000 0.16425 -0.32271
v 0.00000 0.00000 -0.32433
v -0.24601 0.10643 -0.33834
v 0.00000 -0.18909 -0.37152
v -0.22972 -0.09938 -0.31594
v 0.00000 0.00000 -0.32433
v -0.24601 0.10643 -0.33834
v 0.00000 0.00000 -0.32433
v -0.22972 -0.09938 -0.31594
v 0.00000 0.16425 -0.32271
v 0.12302 0.22545 -0.16919
v 0.20786 0.08992 -0.28587
v 0.20161 0.22834 0.00000
v 0.34721 0.15021 -0.11273
v 0.12302 0.22545 -0.16919
v 0.33994 0.00000 -0.17858
v 0.20786 0.08992 -0.28587
v 0.34721 0.15021 -0.11273
v 0.12302 0.22545 -0.16919
v 0.34721 0.15021 -0.11273
v 0.20786 0.08992 -0.28587
v 0.22227 -0.25175 0.00000
v 0.43991 -0.19031 0.14283
v 0.12706 -0.23286 0.17476
v 0.33621 0.00000 0.17662
v 0.25180 -0.10894 0.34631
v 0.43991 -0.19031 0.14283
v 0.00000 -0.15049 0.29567
v 0.12706 -0.23286 0.17476
v 0.25180 -0.10894 0.34631
v 0.43991 -0.19031 0.14283
v 0.25180 -0.10894 0.34631
v 0.12706 -0.23286 0.17476
v 0.22227 -0.25175 0.00000
v 0.12706 -0.23286 0.17476
v 0.00000 -0.31030 0.00000
v 0.00000 -0.15049 0.29567
v -0.14999 -0.27487 0.20628
v 0.12706 -0.23286 0.17476
v -0.25479 -0.28858 0.00000
v 0.00000 -0.31030 0.00000
v -0.14999 -0.27487 0.20628
v 0.12706 -0.23286 0.17476
v -0.14999 -0.27487 0.20628
v 0.00000 -0.31030 0.00000
v 0.22227 -0.25175 0.00000
v 0.00000 -0.31030 0.00000
v 0.11709 -0.21458 -0.16104
v -0.25479 -0.28858 0.00000
v -0.12125 -0.22221 -0.16676
v 0.00000 -0.31030 0.00000
v 0.00000 -0.18909 -0.37152
v 0.11709 -0.21458 -0.16104
v -0.12125 -0.22221 -0.16676
v 0.00000 -0.31030 0.00000
v -0.12125 -0.22221 -0.16676
v 0.11709 -0.21458 -0.16104
v 0.22227 -0.25175 0.00000
v 0.11709 -0.21458 -0.16104
v 0.33556 -0.14517 -0.10895
v 0.00000 -0.18909 -0.37152
v 0.19813 -0.08572 -0.27249
v 0.11709 -0.21458 -0.16104
v 0.33994 0.00000 -0.17858
v 0.33556 -0.14517 -0.10895
v 0.19813 -0.08572 -0.27249
v 0.11709 -0.21458 -0.16104
v 0.19813 -0.08572 -0.27249
v 0.33556 -0.14517 -0.10895
v 0.22227 -0.25175 0.00000
v 0.33556 -0.14517 -0.10895
v 0.43991 -0.19031 0.14283
v 0.33994 0.00000 -0.17858
v 0.41864 0.00000 0.00000
v 0.33556 -0.14517 -0.10895
v 0.33621 0.00000 0.17662
v 0.43991 -0.19031 0.14283
v 0.41864 0.00000 0.00000
v 0.33556 -0.14517 -0.10895
v 0.41864 0.00000 0.00000
v 0.43991 -0.19031 0.14283
v 0.00000 -0.15049 0.29567
v 0.25180 -0.10894 0.34631
v 0.00000 0.00000 0.40873
v 0.33621 0.00000 0.17662
v 0.25898 0.11204 0.35618
v 0.25180 -0.10894 0.34631
v 0.00000 0.18250 0.35856
v 0.00000 0.00000 0.40873
v 0.25898 0.11204 0.35618
v 0.25180 -0.10894 0.34631
v 0.25898 0.11204 0.35618
v 0.00000 0.00000 0.40873
v -0.25479 -0.28858 0.00000
v -0.14999 -0.27487 0.20628
v -0.35263 -0.15256 0.11449
v 0.00000 -0.15049 0.29567
v -0.23834 -0.10311 0.32779
v -0.14999 -0.27487 0.20628
v -0.45990 0.00000 0.24160
v -0.35263 -0.15256 0.11449
v -0.23834 -0.10311 0.32779
v -0.14999 -0.27487 0.20628
v -0.23834 -0.10311 0.32779
v -0.35263 -0.15256 0.11449
v 0.00000 -0.18909 -0.37152
v -0.12125 -0.22221 -0.16676
v -0.22972 -0.09938 -0.31594
v -0.25479 -0.28858 0.00000
v -0.32605 -0.14106 -0.10586
v -0.12125 -0.22221 -0.16676
v -0.44581 0.00000 -0.23419
v -0.22972 -0.09938 -0.31594
v -0.32605 -0.14106 -0.10586
v -0.12125 -0.22221 -0.16676
v -0.32605 -0.14106 -0.10586
v -0.22972 -0.09938 -0.31594
v 0.33994 0.00000 -0.17858
v 0.19813 -0.08572 -0.27249
v 0.20786 0.08992 -0.28587
v 0.00000 -0.18909 -0.37152
v 0.00000 0.00000 -0.32433
v 0.19813 -0.08572 -0.27249
v 0.00000 0.16425 -0.32271
v 0.20786 0.08992 -0.28587
v 0.00000 0.00000 -0.32433
v 0.19813 -0.08572 -0.27249
v 0.00000 0.00000 -0.32433
v 0.20786 0.08992 -0.28587
v 0.33621 0.00000 0.17662
v 0.41864 0.00000 0.00000
v 0.30423 0.13162 0.09877
v 0.33994 0.00000 -0.17858
v 0.34721 0.15021 -0.11273
v 0.41864 0.00000 0.00000
v 0.20161 0.22834 0.00000
v 0.30423 0.13162 0.09877
v 0.34721 0.15021 -0.11273
v 0.41864 0.00000 0.00000
v 0.34721 0.15021 -0.11273
v 0.30423 0.13162 0.09877
vn -0.61399 0.75493 0.23044
vn -0.61399 0.75493 0.23044
vn -0.61399 0.75493 0.23044
vn -0.44943 0.80018 0.39714
vn -0.44943 0.80018 0.39714
vn -0.44943 0.80018 0.39714
vn -0.38396 0.64170 0.66393
vn -0.38396 0.64170 0.66393
vn -0.38396 0.64170 0.66393
vn -0.63741 0.62344 0.45281
vn -0.63741 0.62344 0.45281
vn -0.63741 0.62344 0.45281
vn -0.41585 0.89820 0.14252
vn -0.41585 0.89820 0.14252
vn -0.41585 0.89820 0.14252
vn -0.15341 0.82188 0.54861
vn -0.15341 0.82188 0.54861
vn -0.15341 0.82188 0.54861
vn 0.54104 0.82212 -0.17716
vn 0.54104 0.82212 -0.17716
vn 0.54104 0.82212 -0.17716
vn -0.14773 0.92478 0.35064
vn -0.14773 0.92478 0.35064
vn -0.14773 0.92478 0.35064
vn -0.42004 0.90723 0.02230
vn -0.42004 0.90723 0.02230
vn -0.42004 0.90723 0.02230
vn 0.53078 0.80653 -0.26034
vn 0.53078 0.80653 -0.26034
vn 0.53078 0.80653 -0.26034
vn 0.28420 0.79030 -0.54282
vn 0.28420 0.79030 -0.54282
vn 0.28420 0.79030 -0.54282
vn 0.28202 0.83827 -0.46665
vn 0.28202 0.83827 -0.46665
vn 0.28202 0.83827 -0.46665
vn -0.46092 0.88742 0.00662
vn -0.46092 0.88742 0.00662
vn -0.46092 0.88742 0.00662
vn -0.07991 0.56252 -0.82291
vn -0.07991 0.56252 -0.82291
vn -0.07991 0.56252 -0.82291
vn -0.59722 0.54859 -0.58513
vn -0.59722 0.54859 -0.58513
vn -0.59722 0.54859 -0.58513
vn -0.54479 0.61613 -0.56885
vn -0.54479 0.61613 -0.56885
vn -0.54479 0.61613 -0.56885
vn -0.59124 0.76312 0.26092
vn -0.59124 0.76312 0.26092
vn -0.59124 0.76312 0.26092
vn -0.95182 0.30583 -0.02268
vn -0.95182 0.30583 -0.02268
vn -0.95182 0.30583 -0.02268
vn -0.74216 0.66972 -0.02615
vn -0.74216 0.66972 -0.02615
vn -0.74216 0.66972 -0.02615
vn -0.81731 0.49657 0.29228
vn -0.81731 0.49657 0.29228
vn -0.81731 0.49657 0.29228
vn 0.73111 0.67511 -0.09848
vn 0.73111 0.67511 -0.09848
vn 0.73111 0.67511 -0.09848
vn 0.17424 0.61445 0.76948
vn 0.17424 0.61445 0.76948
vn 0.17424 0.61445 0.76948
vn 0.92318 0.33537 0.18779
vn 0.92318 0.33537 0.18779
vn 0.92318 0.33537 0.18779
vn 0.82272 0.53733 0.18549
vn 0.82272 0.53733 0.18549
vn 0.82272 0.53733 0.18549
vn -0.29308 0.25343 0.92189
vn -0.29308 0.25343 0.92189
vn -0.29308 0.25343 0.92189
vn -0.31867 0.10289 0.94226
vn -0.31867 0.10289 0.94226
vn -0.31867 0.10289 0.94226
vn -0.01165 -0.60063 0.79944
vn -0.01165 -0.60063 0.79944
vn -0.01165 -0.60063 0.79944
vn -0.35994 0.10420 0.92714
vn -0.35994 0.10420 0.92714
vn -0.35994 0.10420 0.92714
vn -0.82896 -0.55855 -0.02921
vn -0.82896 -0.55855 -0.02921
vn -0.82896 -0.55855 -0.02921
vn -0.75406 -0.65656 -0.01796
vn -0.75406 -0.65656 -0.01796
vn -0.75406 -0.65656 -0.01796
vn -0.85339 -0.50498 -0.12931
vn -0.85339 -0.50498 -0.12931
vn -0.85339 -0.50498 -0.12931
vn -0.78674 -0.60419 -0.12644
vn -0.78674 -0.60419 -0.12644
vn -0.78674 -0.60419 -0.12644
vn -0.40274 -0.13048 -0.90597
vn -0.40274 -0.13048 -0.90597
vn -0.40274 -0.13048 -0.90597
vn 0.06111 0.00990 -0.99808
vn 0.06111 0.00990 -0.99808
vn 0.06111 0.00990 -0.99808
vn -0.13885 0.23979 -0.96084
vn -0.13885 0.23979 -0.96084
vn -0.13885 0.23979 -0.96084
vn 0.01014 -0.10740 -0.99416
vn 0.01014 -0.10740 -0.99416
vn 0.01014 -0.10740 -0.99416
vn 0.36334 0.72799 -0.58139
vn 0.36334 0.72799 -0.58139
vn 0.36334 0.72799 -0.58139
vn 0.35337 0.91803 -0.17984
vn 0.35337 0.91803 -0.17984
vn 0.35337 0.91803 -0.17984
vn 0.70819 0.25441 -0.65859
vn 0.70819 0.25441 -0.65859
vn 0.70819 0.25441 -0.65859
vn 0.38686 0.72869 -0.56511
vn 0.38686 0.72869 -0.56511
vn 0.38686 0.72869 -0.56511
vn 0.15112 -0.97062 0.18726
vn 0.15112 -0.97062 0.18726
vn 0.15112 -0.97062 0.18726
vn 0.75672 0.31015 0.57548
vn 0.75672 0.31015 0.57548
vn 0.75672 0.31015 0.57548
vn 0.01887 -0.81695 0.57640
vn 0.01887 -0.81695 0.57640
vn 0.01887 -0.81695 0.57640
vn 0.16650 -0.85281 0.49497
vn 0.16650 -0.85281 0.49497
vn 0.16650 -0.85281 0.49497
vn 0.24749 -0.93960 0.23642
vn 0.24749 -0.93960 0.23642
vn 0.24749 -0.93960 0.23642
vn 0.18499 -0.71079 0.67864
vn 0.18499 -0.71079 0.67864
vn 0.18499 -0.71079 0.67864
vn -0.08443 -0.99048 0.10875
vn -0.08443 -0.99048 0.10875
vn -0.08443 -0.99048 0.10875
vn 0.17559 -0.94099 0.28931
vn 0.17559 -0.94099 0.28931
vn 0.17559 -0.94099 0.28931
vn 0.23734 -0.90105 -0.36301
vn 0.23734 -0.90105 -0.36301
vn 0.23734 -0.90105 -0.36301
vn -0.07703 -0.90364 -0.42131
vn -0.07703 -0.90364 -0.42131
vn -0.07703 -0.90364 -0.42131
vn 0.03504 -0.98963 -0.13932
vn 0.03504 -0.98963 -0.13932
vn 0.03504 -0.98963 -0.13932
vn 0.03965 -0.87134 -0.48908
vn 0.03965 -0.87134 -0.48908
vn 0.03965 -0.87134 -0.48908
vn 0.36485 -0.82632 -0.42904
vn 0.36485 -0.82632 -0.42904
vn 0.36485 -0.82632 -0.42904
vn 0.57389 -0.71155 -0.40540
vn 0.57389 -0.71155 -0.40540
vn 0.57389 -0.71155 -0.40540
vn 0.65395 -0.34315 -0.67424
vn 0.65395 -0.34315 -0.67424
vn 0.65395 -0.34315 -0.67424
vn 0.36909 -0.72982 -0.57544
vn 0.36909 -0.72982 -0.57544
vn 0.36909 -0.72982 -0.57544
vn 0.45354 -0.82548 -0.33599
vn 0.45354 -0.82548 -0.33599
vn 0.45354 -0.82548 -0.33599
vn 0.89351 -0.21584 -0.39376
vn 0.89351 -0.21584 -0.39376
vn 0.89351 -0.21584 -0.39376
vn 0.83587 0.38619 0.39011
vn 0.83587 0.38619 0.39011
vn 0.83587 0.38619 0.39011
vn 0.89061 -0.20507 -0.40590
vn 0.89061 -0.20507 -0.40590
vn 0.89061 -0.20507 -0.40590
vn -0.06157 -0.59953 0.79798
vn -0.06157 -0.59953 0.79798
vn -0.06157 -0.59953 0.79798
vn 0.90631 -0.04818 0.41986
vn 0.90631 -0.04818 0.41986
vn 0.90631 -0.04818 0.41986
vn 0.08071 0.26420 0.96108
vn 0.08071 0.26420 0.96108
vn 0.08071 0.26420 0.96108
vn 0.21959 -0.05064 0.97428
vn 0.21959 -0.05064 0.97428
vn 0.21959 -0.05064 0.97428
vn -0.59521 -0.72310 0.35049
vn -0.59521 -0.72310 0.35049
vn -0.59521 -0.72310 0.35049
vn -0.00531 -0.57935 0.81506
vn -0.00531 -0.57935 0.81506
vn -0.00531 -0.57935 0.81506
vn -0.51433 -0.73282 0.44547
vn -0.51433 -0.73282 0.44547
vn -0.51433 -0.73282 0.44547
vn -0.60235 -0.64375 0.47198
vn -0.60235 -0.64375 0.47198
vn -0.60235 -0.64375 0.47198
vn -0.41479 -0.82705 -0.37940
vn -0.41479 -0.82705 -0.37940
vn -0.41479 -0.82705 -0.37940
vn -0.44181 -0.65402 -0.61406
vn -0.44181 -0.65402 -0.61406
vn -0.44181 -0.65402 -0.61406
vn -0.50173 -0.77520 -0.38383
vn -0.50173 -0.77520 -0.38383
vn -0.50173 -0.77520 -0.38383
vn -0.43458 -0.82434 -0.36278
vn -0.43458 -0.82434 -0.36278
vn -0.43458 -0.82434 -0.36278
vn 0.58850 -0.09374 -0.80304
vn 0.58850 -0.09374 -0.80304
vn 0.58850 -0.09374 -0.80304
vn 0.33756 0.22792 -0.91329
vn 0.33756 0.22792 -0.91329
vn 0.33756 0.22792 -0.91329
vn 0.17787 0.00976 -0.98401
vn 0.17787 0.00976 -0.98401
vn 0.17787 0.00976 -0.98401
vn 0.21717 -0.08607 -0.97233
vn 0.21717 -0.08607 -0.97233
vn 0.21717 -0.08607 -0.97233
vn 0.82001 0.42558 0.38271
vn 0.82001 0.42558 0.38271
vn 0.82001 0.42558 0.38271
vn 0.90716 0.13132 -0.39978
vn 0.90716 0.13132 -0.39978
vn 0.90716 0.13132 -0.39978
vn 0.57276 0.79821 0.18658
vn 0.57276 0.79821 0.18658
vn 0.57276 0.79821 0.18658
vn 0.81087 0.54520 0.21273
vn 0.81087 0.54520 0.21273
vn 0.81087 0.54520 0.21273
vt 0.00000 0.00000
vt 1.00000 0.00000
vt 0.50000 1.00000
vt 0.00000 0.00000
vt 1.00000 0.00000
vt 0.50000 1.00000
vt 0.00000 0.00000
vt 1.00000 0.00000
vt 0.50000 1.00000
vt 0.00000 0.00000
vt 1.00000 0.00000
vt 0.50000 1.00000
vt 0.00000 0.00000
vt 1.00000 0.00000
vt 0.50000 1.00000
vt 0.00000 0.00000
vt 1.00000 0.00000
vt 0.50000 1.00000
vt 0.00000 0.00000
vt 1.00000 0.00000
vt 0.50000 1.00000
vt 0.00000 0.00000
vt 1.00000 0.00000
vt 0.50000 1.00000
vt 0.00000 0.00000
vt 1.00000 0.00000
vt 0.50000 1.00000
vt 0.00000 0.00000
vt 1.00000 0.00000
vt 0.50000 1.00000
vt 0.00000 0.00000
vt 1.00000 0.00000
vt 0.50000 1.00000
vt 0.00000 0.00000
vt 1.00000 0.00000
vt 0.50000 1.00000
vt 0.00000 0.00000
vt 1.00000 0.00000
vt 0.50000 1.00000
vt 0.00000 0.00000
vt 1.00000 0.00000
vt 0.50000 1.00000
vt 0.00000 0.00000
vt 1.00000 0.00000
vt 0.50000 1.00000
vt 0.00000 0.00000
vt 1.00000 0.00000
vt 0.50000 1.00000
vt 0.00000 0.00000
vt 1.00000 0.00000
vt 0.50000 1.00000
vt 0.00000 0.00000
vt 1.00000 0.00000
vt 0.50000 1.00000
vt 0.00000 0.00000
vt 1.00000 0.00000
vt 0.50000 1.00000
vt 0.00000 0.00000
vt 1.00000 0.00000
vt 0.50000 1.00000
vt 0.00000 0.00000
vt 1.00000 0.00000
vt 0.50000 1.00000
vt 0.00000 0.00000
vt 1.00000 0.00000
vt 0.50000 1.00000
vt 0.00000 0.00000
vt 1.00000 0.00000
vt 0.50000 1.00000
vt 0.00000 0.00000
vt 1.00000 0.00000
vt 0.50000 1.00000
vt 0.00000 0.00000
vt 1.00000 0.00000
vt 0.50000 1.00000
vt 0.00000 0.00000
vt 1.00000 0.00000
vt 0.50000 1.00000
vt 0.00000 0.00000
vt 1.00000 0.00000
vt 0.50000 1.00000
vt 0.00000 0.00000
vt 1.00000 0.00000
vt 0.50000 1.00000
vt 0.00000 0.00000
vt 1.00000 0.00000
vt 0.50000 1.00000
vt 0.00000 0.00000
vt 1.00000 0.00000
vt 0.50000 1.00000
vt 0.00000 0.00000
vt 1.00000 0.00000
vt 0.50000 1.00000
vt 0.00000 0.00000
vt 1.00000 0.00000
vt 0.50000 1.00000
vt 0.00000 0.00000
vt 1.00000 0.00000
vt 0.50000 1.00000
vt 0.00000 0.00000
vt 1.00000 0.00000
vt 0.50000 1.00000
vt 0.00000 0.00000
vt 1.00000 0.00000
vt 0.50000 1.00000
vt 0.00000 0.00000
vt 1.00000 0.00000
vt 0.50000 1.00000
vt 0.00000 0.00000
vt 1.00000 0.00000
vt 0.50000 1.00000
vt 0.00000 0.00000
vt 1.00000 0.00000
vt 0.50000 1.00000
vt 0.00000 0.00000
vt 1.00000 0.00000
vt 0.50000 1.00000
vt 0.00000 0.00000
vt 1.00000 0.00000
vt 0.50000 1.00000
vt 0.00000 0.00000
vt 1.00000 0.00000
vt 0.50000 1.00000
vt 0.00000 0.00000
vt 1.00000 0.00000
vt 0.50000 1.00000
vt 0.00000 0.00000
vt 1.00000 0.00000
vt 0.50000 1.00000
vt 0.00000 0.00000
vt 1.00000 0.00000
vt 0.50000 1.00000
vt 0.00000 0.00000
vt 1.00000 0.00000
vt 0.50000 1.00000
vt 0.00000 0.00000
vt 1.00000 0.00000
vt 0.50000 1.00000
vt 0.00000 0.00000
vt 1.00000 0.00000
vt 0.50000 1.00000
vt 0.00000 0.00000
vt 1.00000 0.00000
vt 0.50000 1.00000
vt 0.00000 0.00000
vt 1.00000 0.00000
vt 0.50000 1.00000
vt 0.00000 0.00000
vt 1.00000 0.00000
vt 0.50000 1.00000
vt 0.00000 0.00000
vt 1.00000 0.00000
vt 0.50000 1.00000
vt 0.00000 0.00000
vt 1.00000 0.00000
vt 0.50000 1.00000
vt 0.00000 0.00000
vt 1.00000 0.00000
vt 0.50000 1.00000
vt 0.00000 0.00000
vt 1.00000 0.00000
vt 0.50000 1.00000
vt 0.00000 0.00000
vt 1.00000 0.00000
vt 0.50000 1.00000
vt 0.00000 0.00000
vt 1.00000 0.00000
vt 0.50000 1.00000
vt 0.00000 0.00000
vt 1.00000 0.00000
vt 0.50000 1.00000
vt 0.00000 0.00000
vt 1.00000 0.00000
vt 0.50000 1.00000
vt 0.00000 0.00000
vt 1.00000 0.00000
vt 0.50000 1.00000
vt 0.00000 0.00000
vt 1.00000 0.00000
vt 0.50000 1.00000
vt 0.00000 0.00000
vt 1.00000 0.00000
vt 0.50000 1.00000
vt 0.00000 0.00000
vt 1.00000 0.00000
vt 0.50000 1.00000
vt 0.00000 0.00000
vt 1.00000 0.00000
vt 0.50000 1.00000
vt 0.00000 0.00000
vt 1.00000 0.00000
vt 0.50000 1.00000
vt 0.00000 0.00000
vt 1.00000 0.00000
vt 0.50000 1.00000
vt 0.00000 0.00000
vt 1.00000 0.00000
vt 0.50000 1.00000
vt 0.00000 0.00000
vt 1.00000 0.00000
vt 0.50000 1.00000
vt 0.00000 0.00000
vt 1.00000 0.00000
vt 0.50000 1.00000
vt 0.00000 0.00000
vt 1.00000 0.00000
vt 0.50000 1.00000
vt 0.00000 0.00000
vt 1.00000 0.00000
vt 0.50000 1.00000
vt 0.00000 0.00000
vt 1.00000 0.00000
vt 0.50000 1.00000
vt 0.00000 0.00000
vt 1.00000 0.00000
vt 0.50000 1.00000
vt 0.00000 0.00000
vt 1.00000 0.00000
vt 0.50000 1.00000
vt 0.00000 0.00000
vt 1.00000 0.00000
vt 0.50000 1.00000
vt 0.00000 0.00000
vt 1.00000 0.00000
vt 0.50000 1.00000
vt 0.00000 0.00000
vt 1.00000 0.00000
vt 0.50000 1.00000
vt 0.00000 0.00000
vt 1.00000 0.00000
vt 0.50000 1.00000
vt 0.00000 0.00000
vt 1.00000 0.00000
vt 0.50000 1.00000
vt 0.00000 0.00000
vt 1.00000 0.00000
vt 0.50000 1.00000
vt 0.00000 0.00000
vt 1.00000 0.00000
vt 0.50000 1.00000
f 1/1/1 2/2/2 3/3/3
f 4/4/4 5/5/5 6/6/6
f 7/7/7 8/8/8 9/9/9
f 10/10/10 11/11/11 12/12/12
f 13/13/13 14/14/14 15/15/15
f 16/16/16 17/17/17 18/18/18
f 19/19/19 20/20/20 21/21/21
f 22/22/22 23/23/23 24/24/24
f 25/25/25 26/26/26 27/27/27
f 28/28/28 29/29/29 30/30/30
f 31/31/31 32/32/32 33/33/33
f 34/34/34 35/35/35 36/36/36
f 37/37/37 38/38/38 39/39/39
f 40/40/40 41/41/41 42/42/42
f 43/43/43 44/44/44 45/45/45
f 46/46/46 47/47/47 48/48/48
f 49/49/49 50/50/50 51/51/51
f 52/52/52 53/53/53 54/54/54
f 55/55/55 56/56/56 57/57/57
f 58/58/58 59/59/59 60/60/60
f 61/61/61 62/62/62 63/63/63
f 64/64/64 65/65/65 66/66/66
f 67/67/67 68/68/68 69/69/69
f 70/70/70 71/71/71 72/72/72
f 73/73/73 74/74/74 75/75/75
f 76/76/76 77/77/77 78/78/78
f 79/79/79 80/80/80 81/81/81
f 82/82/82 83/83/83 84/84/84
f 85/85/85 86/86/86 87/87/87
f 88/88/88 89/89/89 90/90/90
f 91/91/91 92/92/92 93/93/93
f 94/94/94 95/95/95 96/96/96
f 97/97/97 98/98/98 99/99/99
f 100/100/100 101/101/101 102/102/102
f 103/103/103 104/104/104 105/105/105
f 106/106/106 107/107/107 108/108/108
f 109/109/109 110/110/110 111/111/111
f 112/112/112 113/113/113 114/114/114
f 115/115/115 116/116/116 117/117/117
f 118/118/118 119/119/119 120/120/120
f 121/121/121 122/122/122 123/123/123
f 124/124/124 125/125/125 126/126/126
f 127/127/127 128/128/128 129/129/129
f 130/130/130 131/131/131 132/132/132
f 133/133/133 134/134/134 135/135/135
f 136/136/136 137/137/137 138/138/138
f 139/139/139 140/140/140 141/141/141
f 142/142/142 143/143/143 144/144/144
f 145/145/145 146/146/146 147/147/147
f 148/148/148 149/149/149 150/150/150
f 151/151/151 152/152/152 153/153/153
f 154/154/154 155/155/155 156/156/156
f 157/157/157 158/158/158 159/159/159
f 160/160/160 161/161/161 162/162/162
f 163/163/163 164/164/164 165/165/165
f 166/166/166 167/167/167 168/168/168
f 169/169/169 170/170/170 171/171/171
f 172/172/172 173/173/173 174/174/174
f 175/175/175 176/176/176 177/177/177
f 178/178/178 179/179/179 180/180/180
f 181/181/181 182/182/182 183/183/183
f 184/184/184 185/185/185 186/186/186
f 187/187/187 188/188/188 189/189/189
f 190/190/190 191/191/191 192/192/192
f 193/193/193 194/194/194 195/195/195
f 196/196/196 197/197/197 198/198/198
f 199/199/199 200/200/200 201/201/201
f 202/202/202 203/203/203 204/204/204
f 205/205/205 206/206/206 207/207/207
f 208/208/208 209/209/209 210/210/210
f 211/211/211 212/212/212 213/213/213
f 214/214/214 215/215/215 216/216/216
f 217/217/217 218/218/218 219/219/219
f 220/220/220 221/221/221 222/222/222
f 223/223/223 224/224/224 225/225/225
f 226/226/226 227/227/227 228/228/228
f 229/229/229 230/230/230 231/231/231
f 232/232/232 233/233/233 234/234/234
f 235/235/235 236/236/236 237/237/237
f 238/238/238 239/239/239 240/240/240
